<svg width="36" height="36" viewBox="0 0 36 36" fill="none" xmlns="http://www.w3.org/2000/svg">
<mask id="path-1-inside-1_5118_2377" fill="white">
<path d="M16.8078 17.1927L0.15332 33.0088C0.153946 33.0121 0.155197 33.0148 0.155823 33.0181C0.666572 34.7354 2.4197 36 4.5004 36C5.33215 36 6.11305 35.7988 6.78274 35.4456L6.83592 35.4177L25.5827 25.7388L16.8078 17.1927Z"/>
</mask>
<path d="M16.8078 17.1927L0.15332 33.0088C0.153946 33.0121 0.155197 33.0148 0.155823 33.0181C0.666572 34.7354 2.4197 36 4.5004 36C5.33215 36 6.11305 35.7988 6.78274 35.4456L6.83592 35.4177L25.5827 25.7388L16.8078 17.1927Z" fill="#FF4131"/>
<path d="M0.15332 33.0088L-0.574261 33.1478L-0.650199 32.7503L-0.356768 32.4717L0.15332 33.0088ZM0.155823 33.0181L-0.554181 33.2292L-0.564781 33.1936L-0.571758 33.1571L0.155823 33.0181ZM6.78274 35.4456L6.43717 34.7904L6.43882 34.7895L6.78274 35.4456ZM6.83592 35.4177L6.492 34.7616L6.4961 34.7595L6.83592 35.4177ZM25.5827 25.7388L26.0995 25.2082L26.836 25.9254L25.9225 26.397L25.5827 25.7388ZM16.8078 17.1927L17.3179 17.7298L0.663409 33.5459L0.15332 33.0088L-0.356768 32.4717L16.2977 16.6556L16.8078 17.1927ZM0.15332 33.0088L0.880902 32.8698C0.876115 32.8447 0.87087 32.8246 0.867247 32.8116C0.865446 32.8052 0.863912 32.8001 0.862996 32.797C0.862174 32.7943 0.861466 32.7921 0.861718 32.7929C0.861743 32.793 0.862008 32.7938 0.862305 32.7948C0.862626 32.7958 0.863114 32.7974 0.863695 32.7993C0.864841 32.8031 0.8666 32.809 0.868616 32.8162C0.872669 32.8307 0.878304 32.8524 0.883404 32.8791L0.155823 33.0181L-0.571758 33.1571C-0.566971 33.1821 -0.561727 33.2023 -0.558104 33.2152C-0.556303 33.2217 -0.554769 33.2268 -0.553853 33.2298C-0.55303 33.2325 -0.552322 33.2348 -0.552575 33.234C-0.552599 33.2339 -0.552864 33.2331 -0.553162 33.2321C-0.553483 33.2311 -0.553971 33.2295 -0.554552 33.2276C-0.555698 33.2238 -0.557457 33.2179 -0.559472 33.2107C-0.563525 33.1962 -0.569161 33.1745 -0.574261 33.1478L0.15332 33.0088ZM0.155823 33.0181L0.865827 32.8069C1.27196 34.1725 2.70651 35.2593 4.5004 35.2593V36V36.7407C2.1329 36.7407 0.0611845 35.2983 -0.554181 33.2292L0.155823 33.0181ZM4.5004 36V35.2593C5.21256 35.2593 5.87476 35.087 6.43717 34.7904L6.78274 35.4456L7.1283 36.1008C6.35135 36.5106 5.45173 36.7407 4.5004 36.7407V36ZM6.78274 35.4456L6.43882 34.7895L6.49201 34.7617L6.83592 35.4177L7.17984 36.0738L7.12665 36.1017L6.78274 35.4456ZM6.83592 35.4177L6.4961 34.7595L25.2429 25.0806L25.5827 25.7388L25.9225 26.397L7.17575 36.0759L6.83592 35.4177ZM25.5827 25.7388L25.0659 26.2695L16.291 17.7233L16.8078 17.1927L17.3246 16.662L26.0995 25.2082L25.5827 25.7388Z" fill="#297B6A" mask="url(#path-1-inside-1_5118_2377)"/>
<mask id="path-3-inside-2_5118_2377" fill="white">
<path d="M33.6573 14.4996L33.6414 14.4898L25.5479 10.2919L16.4297 17.5516L25.5797 25.7373L33.6304 21.581C35.0419 20.8993 36.0001 19.5679 36.0001 18.0326C36.0001 16.5084 35.0548 15.1836 33.6573 14.4996Z"/>
</mask>
<path d="M33.6573 14.4996L33.6414 14.4898L25.5479 10.2919L16.4297 17.5516L25.5797 25.7373L33.6304 21.581C35.0419 20.8993 36.0001 19.5679 36.0001 18.0326C36.0001 16.5084 35.0548 15.1836 33.6573 14.4996Z" fill="#FFCF00"/>
<path d="M33.6414 14.4898L33.9825 13.8323L34.0062 13.8446L34.0291 13.8586L33.6414 14.4898ZM25.5479 10.2919L25.0865 9.71236L25.4625 9.41307L25.889 9.63431L25.5479 10.2919ZM16.4297 17.5516L15.9358 18.1036L15.2819 17.5186L15.9683 16.9721L16.4297 17.5516ZM25.5797 25.7373L25.9195 26.3955L25.4661 26.6296L25.0858 26.2894L25.5797 25.7373ZM33.6304 21.581L33.2906 20.9228L33.2994 20.9183L33.3083 20.914L33.6304 21.581ZM33.6573 14.4996L33.2697 15.1308L33.2537 15.121L33.6414 14.4898L34.0291 13.8586L34.045 13.8684L33.6573 14.4996ZM33.6414 14.4898L33.3003 15.1474L25.2069 10.9494L25.5479 10.2919L25.889 9.63431L33.9825 13.8323L33.6414 14.4898ZM25.5479 10.2919L26.0093 10.8714L16.8911 18.1311L16.4297 17.5516L15.9683 16.9721L25.0865 9.71236L25.5479 10.2919ZM16.4297 17.5516L16.9236 16.9995L26.0736 25.1852L25.5797 25.7373L25.0858 26.2894L15.9358 18.1036L16.4297 17.5516ZM25.5797 25.7373L25.2399 25.0791L33.2906 20.9228L33.6304 21.581L33.9702 22.2392L25.9195 26.3955L25.5797 25.7373ZM33.6304 21.581L33.3083 20.914C34.505 20.336 35.2593 19.2406 35.2593 18.0326H36.0001H36.7408C36.7408 19.8952 35.5788 21.4626 33.9526 22.248L33.6304 21.581ZM36.0001 18.0326H35.2593C35.2593 16.8333 34.5151 15.7442 33.3317 15.1649L33.6573 14.4996L33.983 13.8343C35.5944 14.6231 36.7408 16.1836 36.7408 18.0326H36.0001Z" fill="#297B6A" mask="url(#path-3-inside-2_5118_2377)"/>
<path d="M16.8164 17.6055L0.390625 3.67871C0.378317 3.79284 0.370117 3.90876 0.370117 4.02637V31.9736C0.370117 32.0845 0.377762 32.194 0.388672 32.3018L16.8164 17.6055Z" fill="#01D1FF" stroke="#297B6A" stroke-width="0.740741"/>
<path d="M24.9038 10.3721L6.65479 0.904297L6.41064 0.782227C5.83916 0.519703 5.19051 0.370117 4.50049 0.370117C2.65393 0.370136 1.11945 1.44169 0.58252 2.87891L16.9302 17.5039L24.9038 10.3721Z" fill="#01E55A" stroke="#297B6A" stroke-width="0.740741"/>
</svg>
