<svg width="192" height="192" viewBox="0 0 192 192" fill="none" xmlns="http://www.w3.org/2000/svg">
<g clip-path="url(#clip0_716_24)">
<path d="M190.242 67.3779C187.881 49.5504 181.571 33.3936 170.442 21.5601H170.437C158.605 10.4328 142.45 4.12225 124.623 1.76131C107.593 -0.497085 96.0027 0.0611058 96.0027 0.0611058C96.0027 0.0611058 84.4058 -0.497085 67.377 1.76067C49.5486 4.12161 33.3944 10.4328 21.5598 21.5595C10.4333 33.393 4.1203 49.5497 1.75902 67.3779C-0.498452 84.4043 0.0615912 96.0007 0.0615912 96.0007C0.0615912 96.0007 -0.498452 107.593 1.75902 124.624C4.1203 142.452 10.4333 158.605 21.5598 170.437V170.441C33.3944 181.567 49.5486 187.877 67.3764 190.241C84.4052 192.498 96.0021 191.938 96.0021 191.938C96.0021 191.938 107.593 192.498 124.623 190.241C142.45 187.878 158.605 181.568 170.437 170.441L170.441 170.437C181.57 158.605 187.881 142.452 190.241 124.624C192.497 107.593 191.939 96.0007 191.939 96.0007C191.939 96.0007 192.497 84.4037 190.242 67.3779Z" fill="#0704B0"/>
<path d="M80.24 47.9258C110.768 28.3851 130.285 29.6183 142.292 36.3799C148.224 39.7205 152.151 44.3242 154.589 48.0684C155.809 49.9431 156.664 51.6144 157.217 52.8242C157.493 53.4294 157.695 53.9209 157.829 54.2666C157.896 54.4393 157.947 54.5756 157.981 54.6719C157.998 54.7198 158.012 54.7586 158.021 54.7861C158.026 54.7997 158.03 54.811 158.033 54.8193C158.034 54.8236 158.036 54.8272 158.037 54.8301C158.037 54.8315 158.038 54.8333 158.038 54.834C158.038 54.8356 158.013 54.8453 156.47 55.3574L158.038 54.8369L160.419 62.0088L155.263 56.4844C143.458 43.8391 125.737 43.3725 110.506 46.3232C102.94 47.7889 96.1234 50.0747 91.1921 51.999C88.7293 52.9601 86.7424 53.829 85.3757 54.4551C84.6929 54.7679 84.1651 55.0206 83.8103 55.1934C83.633 55.2797 83.4984 55.3463 83.4099 55.3906C83.3658 55.4127 83.3325 55.4297 83.3113 55.4404C83.3009 55.4457 83.2925 55.4498 83.2878 55.4521C83.2858 55.4532 83.2838 55.4537 83.283 55.4541L81.5154 56.3613L79.1902 48.5977L80.24 47.9258ZM155.29 54.1494V54.1484V54.1494ZM155.386 52.8203C155.506 53.0655 155.616 53.2955 155.715 53.5107C155.616 53.2955 155.506 53.0655 155.386 52.8203ZM152.192 51.4482C152.271 51.5095 152.349 51.5727 152.427 51.6348C152.137 51.4052 151.845 51.1796 151.55 50.9609L152.192 51.4482ZM147.55 48.3926V48.3916V48.3926ZM151.826 47C152.061 47.3134 152.284 47.6244 152.499 47.9307C152.284 47.6244 152.061 47.3134 151.826 47ZM142.817 46.1924C143.16 46.3244 143.502 46.4616 143.842 46.6035C143.502 46.4616 143.16 46.3244 142.817 46.1924ZM104.586 45.9561V45.9551V45.9561ZM141.163 45.5967L141.162 45.5957L141.163 45.5967ZM114.592 43.958C113.599 44.1 112.615 44.259 111.642 44.4316L113.11 44.1836C113.602 44.1047 114.095 44.029 114.592 43.958ZM135.959 44.209V44.208V44.209ZM119.872 43.377C119.618 43.3962 119.364 43.4167 119.111 43.4385C119.618 43.3949 120.126 43.3565 120.635 43.3232L119.872 43.377ZM129.86 43.3604V43.3594V43.3604ZM126.782 43.1973V43.1963V43.1973ZM147.835 42.5137H147.836H147.835ZM142.004 38.1211H142.005H142.004ZM137.505 35.9307H137.506H137.505ZM132.258 34.3594H132.259H132.258Z" fill="url(#paint0_linear_716_24)"/>
<path d="M119.526 49.7949C154.333 59.0081 167.05 74.1806 170.736 87.5352C172.559 94.1444 172.118 100.143 171.229 104.476C170.784 106.644 170.225 108.406 169.773 109.634C169.547 110.248 169.346 110.731 169.2 111.065C169.128 111.232 169.067 111.362 169.025 111.453C169.003 111.499 168.986 111.535 168.974 111.561C168.968 111.573 168.962 111.584 168.958 111.592C168.956 111.596 168.955 111.6 168.953 111.603C168.953 111.604 168.952 111.605 168.951 111.605C168.945 111.604 168.857 111.563 167.472 110.871L168.95 111.609L165.603 118.316L165.821 110.822C166.323 93.5582 154.248 80.1855 141.57 70.9785C135.272 66.4052 128.93 62.9383 124.156 60.6143C121.772 59.4535 119.785 58.5804 118.398 57.999C117.705 57.7086 117.161 57.4917 116.794 57.3477C116.611 57.2758 116.471 57.2217 116.378 57.1865C116.332 57.169 116.297 57.1568 116.275 57.1484C116.264 57.1444 116.256 57.1406 116.251 57.1387C116.249 57.1379 116.247 57.1371 116.246 57.1367L114.45 56.4756L118.273 49.4629L119.526 49.7949ZM167.076 104.279H167.077H167.076ZM165.598 98.0928C165.762 98.5914 165.916 99.0944 166.061 99.6016C165.916 99.0944 165.762 98.5914 165.598 98.0928ZM162.077 90.2539H162.076H162.077Z" fill="url(#paint1_linear_716_24)"/>
<path d="M145.358 80.2861C163.768 111.176 162.19 130.678 155.404 142.57C152.047 148.452 147.499 152.31 143.809 154.693C141.962 155.886 140.32 156.716 139.131 157.251C138.536 157.518 138.053 157.713 137.713 157.842C137.543 157.906 137.409 157.955 137.314 157.988C137.266 158.005 137.229 158.017 137.201 158.026C137.188 158.031 137.177 158.035 137.168 158.038C137.164 158.039 137.161 158.04 137.158 158.041C137.157 158.041 137.155 158.043 137.155 158.043C137.153 158.043 137.143 158.018 136.644 156.472L137.152 158.044L130.03 160.345L135.522 155.259C148.048 143.659 148.846 125.905 146.268 110.589C144.988 102.983 142.894 96.1127 141.117 91.1387C140.23 88.6544 139.424 86.6489 138.841 85.2686C138.55 84.5787 138.314 84.0451 138.153 83.6865C138.072 83.5073 138.01 83.3707 137.969 83.2812C137.948 83.2368 137.932 83.204 137.922 83.1826C137.917 83.172 137.914 83.164 137.911 83.1592C137.91 83.1568 137.909 83.1542 137.908 83.1533L137.075 81.3975L144.704 79.1895L145.358 80.2861ZM144.971 151.871H144.972H144.971ZM142.193 149.944C142.016 150.212 141.835 150.477 141.65 150.741C141.835 150.477 142.016 150.212 142.193 149.944ZM153.042 143.274C151.878 145.075 150.601 146.655 149.288 148.036C149.527 147.785 149.765 147.528 150 147.264C150.354 146.867 150.704 146.455 151.049 146.027C151.279 145.743 151.507 145.451 151.732 145.152C151.844 145.003 151.956 144.852 152.067 144.699C152.289 144.393 152.507 144.08 152.723 143.76C152.831 143.6 152.937 143.438 153.043 143.274H153.042ZM154.834 140.128H154.835H154.834ZM156.976 134.626H156.977H156.976ZM148.496 132.714C148.469 132.899 148.442 133.085 148.413 133.27C148.442 133.085 148.469 132.899 148.496 132.714ZM158.409 125.724C158.385 126.271 158.35 126.809 158.306 127.338C158.35 126.809 158.385 126.271 158.409 125.724ZM158.395 121.452H158.396H158.395ZM157.815 115.864H157.816H157.815ZM155.631 106.498H155.632H155.631ZM152.184 97.1309C152.536 97.9537 152.871 98.7658 153.19 99.5674C152.871 98.7658 152.536 97.9537 152.184 97.1309ZM150.485 93.3545H150.486H150.485ZM147.126 86.7324C147.62 87.6432 148.095 88.5422 148.552 89.4307C148.095 88.5422 147.62 87.6432 147.126 86.7324ZM148.702 116.264C148.664 115.882 148.621 115.502 148.577 115.123C148.621 115.502 148.664 115.882 148.702 116.264ZM147.092 106.085C147.167 106.437 147.238 106.792 147.31 107.148C147.238 106.792 147.167 106.437 147.092 106.085Z" fill="url(#paint2_linear_716_24)"/>
<path d="M142.527 118.188L142.209 119.43C133.309 154.256 118.649 167.016 105.7 170.726C99.2911 172.562 93.4731 172.122 89.2727 171.232C87.1706 170.787 85.4623 170.226 84.2717 169.773C83.6761 169.547 83.2083 169.347 82.884 169.2C82.7218 169.127 82.595 169.067 82.5061 169.023C82.4618 169.002 82.427 168.984 82.4016 168.972C82.3891 168.965 82.3791 168.96 82.3713 168.956C82.3674 168.954 82.3633 168.953 82.3606 168.951C82.3595 168.951 82.3584 168.95 82.3577 168.949C82.3577 168.946 82.3874 168.884 83.1125 167.479L82.3547 168.948L75.887 165.609L83.1624 165.828C99.8177 166.33 112.739 154.288 121.654 141.596C126.077 135.297 129.429 128.954 131.677 124.179C132.8 121.794 133.644 119.806 134.206 118.418C134.487 117.724 134.698 117.181 134.837 116.813C134.907 116.63 134.958 116.489 134.992 116.396C135.009 116.351 135.022 116.316 135.031 116.294C135.035 116.283 135.038 116.275 135.039 116.27C135.04 116.267 135.041 116.266 135.041 116.265L135.692 114.436L142.527 118.188ZM96.0754 170.341C96.2501 170.343 96.4258 170.348 96.6028 170.348C96.4258 170.348 96.2501 170.343 96.0754 170.341ZM96.884 170.346C96.9331 170.345 96.9823 170.345 97.0315 170.345C96.9823 170.345 96.9331 170.345 96.884 170.346ZM97.4055 170.336C97.452 170.335 97.4986 170.334 97.5452 170.333C97.4986 170.334 97.452 170.335 97.4055 170.336ZM95.0256 170.31C95.2181 170.319 95.412 170.328 95.6077 170.334C95.412 170.328 95.2181 170.319 95.0256 170.31ZM97.8586 170.321C97.9311 170.318 98.0036 170.315 98.0764 170.312C98.0036 170.315 97.9311 170.318 97.8586 170.321ZM98.2942 170.301C98.4077 170.295 98.5216 170.288 98.636 170.28C98.5217 170.288 98.4077 170.295 98.2942 170.301ZM94.1311 170.256C94.3096 170.269 94.4895 170.283 94.6711 170.293C94.4895 170.283 94.3096 170.269 94.1311 170.256ZM98.801 170.269C98.9113 170.261 99.022 170.253 99.1331 170.244C99.022 170.253 98.9113 170.261 98.801 170.269ZM99.3108 170.229C99.4324 170.219 99.5545 170.208 99.677 170.196C99.5545 170.208 99.4324 170.219 99.3108 170.229ZM93.2571 170.18C93.4153 170.196 93.5747 170.213 93.7356 170.227C93.5747 170.213 93.4153 170.196 93.2571 170.18ZM99.8333 170.18C99.953 170.167 100.073 170.154 100.194 170.141C100.073 170.154 99.953 170.167 99.8333 170.18ZM92.345 170.075C92.5091 170.096 92.6746 170.119 92.842 170.138C92.6746 170.119 92.5091 170.096 92.345 170.075ZM100.398 170.116C100.506 170.103 100.616 170.09 100.725 170.075C100.616 170.09 100.506 170.103 100.398 170.116ZM100.898 170.052C101.02 170.035 101.143 170.017 101.267 169.999C101.143 170.017 101.02 170.035 100.898 170.052ZM91.261 169.921C91.4995 169.959 91.742 169.996 91.9885 170.03C91.742 169.996 91.4995 169.959 91.261 169.921ZM101.513 169.961C101.596 169.948 101.679 169.935 101.763 169.921C101.679 169.935 101.596 169.948 101.513 169.961ZM90.6506 169.815C90.8251 169.847 91.0017 169.879 91.1809 169.908C91.0017 169.879 90.8251 169.847 90.6506 169.815ZM102.03 169.875C102.139 169.856 102.248 169.837 102.358 169.816C102.248 169.837 102.139 169.856 102.03 169.875ZM102.585 169.773C102.68 169.755 102.774 169.736 102.869 169.717C102.774 169.736 102.68 169.755 102.585 169.773ZM89.8313 169.658C89.9988 169.693 90.1685 169.728 90.3411 169.761C90.1685 169.728 89.9988 169.693 89.8313 169.658ZM103.161 169.656C103.249 169.637 103.338 169.618 103.426 169.599C103.338 169.618 103.249 169.637 103.161 169.656ZM87.51 169.098C84.7654 168.329 83.1299 167.488 83.1125 167.479C83.1271 167.487 84.7631 168.328 87.51 169.098ZM103.737 169.527C103.812 169.51 103.887 169.492 103.962 169.474C103.887 169.492 103.812 169.51 103.737 169.527ZM104.286 169.394C104.378 169.37 104.47 169.347 104.562 169.323C104.47 169.347 104.378 169.37 104.286 169.394ZM104.819 169.254C104.924 169.225 105.029 169.196 105.135 169.166C105.029 169.196 104.924 169.225 104.819 169.254ZM105.361 169.102C105.473 169.069 105.585 169.036 105.698 169.002C105.585 169.036 105.473 169.069 105.361 169.102ZM105.979 168.915C106.082 168.883 106.186 168.85 106.289 168.816C106.186 168.85 106.082 168.883 105.979 168.915ZM106.487 168.751C106.604 168.712 106.723 168.673 106.841 168.632C106.723 168.673 106.604 168.712 106.487 168.751ZM107.165 168.518C107.231 168.494 107.297 168.47 107.364 168.446C107.297 168.47 107.231 168.494 107.165 168.518ZM107.731 168.31C107.811 168.279 107.891 168.248 107.971 168.217C107.891 168.248 107.811 168.279 107.731 168.31ZM108.295 168.089C108.387 168.052 108.479 168.015 108.571 167.978C108.479 168.015 108.387 168.052 108.295 168.089ZM108.843 167.864C108.95 167.819 109.057 167.773 109.164 167.727C109.057 167.773 108.95 167.819 108.843 167.864ZM109.477 167.589C109.565 167.549 109.653 167.509 109.741 167.469C109.653 167.509 109.565 167.549 109.477 167.589ZM110.007 167.345C110.136 167.284 110.265 167.223 110.394 167.16C110.265 167.223 110.136 167.284 110.007 167.345ZM110.573 167.072C110.702 167.009 110.831 166.945 110.96 166.879C110.831 166.945 110.702 167.009 110.573 167.072ZM111.197 166.757C111.304 166.701 111.411 166.644 111.519 166.587C111.411 166.644 111.304 166.701 111.197 166.757ZM111.831 166.418C111.907 166.377 111.982 166.335 112.058 166.293C111.982 166.335 111.907 166.377 111.831 166.418ZM112.455 166.069C112.531 166.026 112.606 165.981 112.682 165.937C112.606 165.981 112.531 166.026 112.455 166.069ZM112.986 165.758C113.095 165.692 113.205 165.626 113.315 165.559C113.205 165.626 113.095 165.692 112.986 165.758ZM113.585 165.391C113.691 165.325 113.796 165.258 113.902 165.19C113.796 165.258 113.691 165.325 113.585 165.391ZM114.207 164.992C114.302 164.93 114.397 164.867 114.491 164.804C114.397 164.867 114.302 164.93 114.207 164.992ZM114.768 164.617C114.888 164.535 115.007 164.452 115.127 164.368C115.007 164.452 114.888 164.535 114.768 164.617ZM115.368 164.199C115.473 164.125 115.576 164.049 115.681 163.973C115.576 164.049 115.473 164.125 115.368 164.199ZM116.008 163.732C116.092 163.67 116.175 163.607 116.259 163.544C116.175 163.607 116.092 163.67 116.008 163.732ZM116.589 163.291C116.684 163.218 116.778 163.144 116.872 163.069C116.778 163.144 116.684 163.218 116.589 163.291ZM117.164 162.838C117.282 162.743 117.399 162.647 117.517 162.55C117.399 162.647 117.282 162.743 117.164 162.838ZM117.74 162.364C117.87 162.256 117.999 162.147 118.128 162.036C117.999 162.147 117.87 162.256 117.74 162.364ZM118.331 161.86C118.456 161.752 118.581 161.642 118.705 161.531C118.581 161.642 118.456 161.752 118.331 161.86ZM118.959 161.303C119.06 161.212 119.161 161.12 119.261 161.027C119.16 161.12 119.06 161.212 118.959 161.303ZM119.568 160.741C119.661 160.653 119.754 160.565 119.847 160.476C119.754 160.565 119.661 160.653 119.568 160.741ZM120.15 160.184C120.249 160.087 120.348 159.989 120.448 159.891C120.348 159.989 120.249 160.087 120.15 160.184ZM120.774 159.564C120.855 159.482 120.935 159.398 121.016 159.314C120.935 159.398 120.855 159.482 120.774 159.564ZM121.343 158.975C121.43 158.883 121.516 158.791 121.603 158.698C121.516 158.791 121.43 158.883 121.343 158.975ZM121.936 158.34C122.025 158.242 122.114 158.144 122.203 158.045C122.114 158.144 122.025 158.242 121.936 158.34ZM122.522 157.69C122.616 157.584 122.709 157.475 122.803 157.367C122.709 157.475 122.616 157.584 122.522 157.69ZM123.111 157.011C123.197 156.909 123.284 156.807 123.37 156.704C123.284 156.807 123.197 156.909 123.111 157.011ZM123.721 156.282C123.774 156.218 123.826 156.153 123.879 156.088C123.826 156.153 123.774 156.218 123.721 156.282ZM124.283 155.586C124.385 155.458 124.486 155.329 124.587 155.199C124.486 155.329 124.385 155.458 124.283 155.586ZM124.846 154.865C124.966 154.709 125.086 154.55 125.206 154.391C125.086 154.55 124.966 154.709 124.846 154.865ZM125.42 154.105C125.511 153.983 125.599 153.859 125.69 153.735C125.599 153.859 125.511 153.983 125.42 154.105ZM125.998 153.312C126.086 153.189 126.173 153.065 126.26 152.941C126.173 153.065 126.086 153.189 125.998 153.312ZM126.59 152.471C126.646 152.39 126.701 152.307 126.757 152.226C126.701 152.307 126.646 152.39 126.59 152.471ZM127.149 151.646C127.222 151.537 127.294 151.426 127.367 151.315C127.294 151.426 127.222 151.537 127.149 151.646ZM127.7 150.808C127.817 150.627 127.933 150.444 128.049 150.26C127.933 150.444 127.817 150.627 127.7 150.808ZM128.247 149.945C128.344 149.79 128.44 149.633 128.536 149.476C128.44 149.633 128.344 149.79 128.247 149.945ZM128.808 149.031C128.896 148.885 128.984 148.737 129.073 148.589C128.984 148.737 128.896 148.885 128.808 149.031ZM129.39 148.051C129.505 147.853 129.618 147.653 129.733 147.452C129.618 147.653 129.505 147.853 129.39 148.051ZM129.892 147.173C130.001 146.979 130.109 146.782 130.218 146.585C130.109 146.782 130.001 146.979 129.892 147.173ZM130.449 146.166C130.546 145.988 130.642 145.808 130.739 145.627C130.642 145.808 130.546 145.988 130.449 146.166ZM131 145.139C131.089 144.97 131.176 144.799 131.264 144.628C131.176 144.799 131.089 144.97 131 145.139ZM132.047 143.078C132.141 142.888 132.233 142.696 132.325 142.504C132.233 142.696 132.141 142.888 132.047 143.078ZM133.629 139.688C133.737 139.445 133.843 139.2 133.949 138.953C133.843 139.2 133.737 139.445 133.629 139.688ZM134.135 138.525C134.205 138.361 134.275 138.195 134.345 138.029C134.275 138.195 134.205 138.361 134.135 138.525ZM135.621 134.865C135.726 134.594 135.828 134.321 135.932 134.046C135.828 134.321 135.726 134.594 135.621 134.865ZM136.115 133.561C136.203 133.325 136.289 133.087 136.376 132.849C136.289 133.087 136.203 133.325 136.115 133.561ZM137.988 128.149C138.108 127.776 138.226 127.399 138.345 127.02C138.226 127.399 138.108 127.776 137.988 128.149ZM88.927 169.461C89.1469 169.512 89.3717 169.563 89.6018 169.612C89.3717 169.563 89.1469 169.512 88.927 169.461ZM131.525 144.123C131.675 143.828 131.824 143.528 131.973 143.227C131.824 143.528 131.675 143.828 131.525 144.123ZM135.127 136.126C135.269 135.772 135.408 135.413 135.548 135.052C135.408 135.413 135.269 135.772 135.127 136.126Z" fill="url(#paint3_linear_716_24)"/>
<path d="M36.7407 135.52C48.3556 148.035 66.1011 148.833 81.4028 146.259C89.0012 144.98 95.8631 142.891 100.831 141.116C103.312 140.23 105.315 139.424 106.693 138.842C107.382 138.551 107.915 138.315 108.273 138.154C108.452 138.074 108.587 138.012 108.676 137.971C108.721 137.95 108.754 137.935 108.776 137.925C108.787 137.92 108.795 137.915 108.799 137.913C108.801 137.912 108.803 137.912 108.804 137.911L110.54 137.087L112.824 144.657L111.716 145.317C80.8223 163.763 61.3206 162.196 49.4282 155.41C43.5464 152.054 39.6886 147.505 37.3062 143.812C36.1137 141.965 35.2838 140.321 34.7495 139.132C34.4823 138.537 34.2878 138.054 34.1587 137.714C34.0942 137.544 34.0454 137.409 34.0122 137.314C33.9956 137.267 33.9833 137.228 33.9741 137.201C33.9696 137.188 33.9652 137.176 33.9624 137.168C33.9611 137.164 33.9604 137.16 33.9595 137.157C33.959 137.156 33.9577 137.154 33.9575 137.153C33.9593 137.151 34.0184 137.131 35.5298 136.644L33.9575 137.151L31.6665 130.053L36.7407 135.52ZM68.1206 158.451C68.2034 158.451 68.2864 158.45 68.3696 158.45C68.2864 158.45 68.2034 158.451 68.1206 158.451ZM67.2114 158.439C67.3441 158.442 67.4772 158.444 67.6108 158.446C67.4772 158.444 67.3441 158.442 67.2114 158.439ZM68.9302 158.445C69.0564 158.443 69.183 158.441 69.3101 158.438C69.183 158.441 69.0564 158.443 68.9302 158.445ZM66.4312 158.415C66.5463 158.42 66.6619 158.423 66.7778 158.427C66.6619 158.423 66.5463 158.42 66.4312 158.415ZM69.8228 158.423C69.9228 158.419 70.023 158.414 70.1235 158.41C70.023 158.414 69.9228 158.419 69.8228 158.423ZM65.564 158.371C65.705 158.38 65.8466 158.387 65.9888 158.395C65.8466 158.387 65.705 158.38 65.564 158.371ZM70.6899 158.385C70.8068 158.379 70.9239 158.371 71.0415 158.364C70.9239 158.371 70.8068 158.379 70.6899 158.385ZM64.7808 158.316C64.9275 158.328 65.075 158.338 65.2231 158.349C65.075 158.338 64.9275 158.328 64.7808 158.316ZM71.5747 158.33C71.7078 158.321 71.8411 158.309 71.9751 158.299C71.8411 158.309 71.7078 158.321 71.5747 158.33ZM64.0151 158.247C64.1358 158.259 64.2569 158.27 64.3784 158.281C64.2569 158.27 64.1358 158.259 64.0151 158.247ZM72.481 158.258C72.6347 158.244 72.7889 158.229 72.9438 158.214C72.7889 158.229 72.6347 158.244 72.481 158.258ZM63.2622 158.165C63.3634 158.177 63.465 158.188 63.5669 158.199C63.465 158.188 63.3634 158.177 63.2622 158.165ZM73.3608 158.173C73.5495 158.153 73.7388 158.131 73.9292 158.108C73.7388 158.131 73.5495 158.153 73.3608 158.173ZM62.4849 158.065C62.5877 158.08 62.6909 158.093 62.7944 158.106C62.6909 158.093 62.5877 158.08 62.4849 158.065ZM74.311 158.063C74.4654 158.044 74.6203 158.024 74.7759 158.004C74.6203 158.024 74.4654 158.044 74.311 158.063ZM61.7642 157.958C61.8553 157.972 61.9468 157.986 62.0386 158C61.9468 157.986 61.8553 157.972 61.7642 157.958ZM75.3042 157.933C75.4299 157.915 75.5557 157.895 75.6821 157.876C75.5557 157.895 75.4299 157.915 75.3042 157.933ZM61.0269 157.833C61.1086 157.848 61.1907 157.862 61.2729 157.876C61.1907 157.862 61.1086 157.848 61.0269 157.833ZM76.2593 157.788C76.3878 157.768 76.5167 157.746 76.646 157.725C76.5167 157.746 76.3878 157.768 76.2593 157.788ZM60.2808 157.691C60.3765 157.711 60.4725 157.73 60.5688 157.748C60.4725 157.73 60.3765 157.711 60.2808 157.691ZM77.2485 157.622C77.3596 157.602 77.4709 157.582 77.5825 157.562C77.4709 157.582 77.3596 157.602 77.2485 157.622ZM59.5493 157.537C59.673 157.565 59.7975 157.591 59.9224 157.617C59.7975 157.591 59.673 157.565 59.5493 157.537ZM58.8735 157.38C58.9805 157.406 59.088 157.431 59.1958 157.456C59.088 157.431 58.9805 157.406 58.8735 157.38ZM78.269 157.434C78.351 157.418 78.4329 157.401 78.5151 157.385C78.4329 157.401 78.351 157.418 78.269 157.434ZM58.1606 157.199C58.2727 157.229 58.3855 157.257 58.4985 157.286C58.3855 157.257 58.2727 157.229 58.1606 157.199ZM79.2466 157.237C79.3551 157.215 79.4637 157.19 79.5728 157.167C79.4637 157.19 79.3551 157.215 79.2466 157.237ZM57.4771 157.011C57.6077 157.048 57.7395 157.084 57.8716 157.12C57.7395 157.084 57.6077 157.048 57.4771 157.011ZM80.3198 157.002C80.3735 156.99 80.4272 156.977 80.481 156.965C80.4272 156.977 80.3735 156.99 80.3198 157.002ZM56.8345 156.819C56.962 156.859 57.0903 156.897 57.2192 156.936C57.0903 156.897 56.962 156.859 56.8345 156.819ZM81.2983 156.771C81.427 156.74 81.5558 156.708 81.6851 156.676C81.5558 156.708 81.427 156.74 81.2983 156.771ZM56.2017 156.617C56.3002 156.65 56.3991 156.682 56.4985 156.714C56.3991 156.682 56.3002 156.65 56.2017 156.617ZM55.5601 156.398C55.6727 156.438 55.7861 156.477 55.8999 156.516C55.7861 156.477 55.6727 156.438 55.5601 156.398ZM82.3784 156.501C82.4831 156.474 82.5877 156.445 82.6929 156.417C82.5877 156.445 82.4832 156.474 82.3784 156.501ZM54.9409 156.174C55.0433 156.212 55.1461 156.25 55.2495 156.288C55.1461 156.25 55.0433 156.212 54.9409 156.174ZM83.4155 156.224C83.6115 156.17 83.8079 156.114 84.0054 156.058C83.8079 156.114 83.6115 156.17 83.4155 156.224ZM54.3403 155.942C54.4326 155.979 54.5255 156.015 54.6187 156.051C54.5255 156.015 54.4326 155.979 54.3403 155.942ZM84.4839 155.921C84.6657 155.868 84.8477 155.813 85.0308 155.758C84.8477 155.813 84.6657 155.868 84.4839 155.921ZM53.728 155.691C53.8253 155.732 53.9228 155.773 54.021 155.813C53.9228 155.773 53.8253 155.732 53.728 155.691ZM85.5923 155.589C85.7242 155.548 85.8562 155.506 85.9888 155.465C85.8562 155.506 85.7242 155.548 85.5923 155.589ZM53.1372 155.437C53.2363 155.481 53.3359 155.524 53.436 155.567C53.3359 155.524 53.2363 155.481 53.1372 155.437ZM52.5737 155.18C52.6634 155.222 52.7537 155.262 52.8442 155.304C52.7537 155.262 52.6634 155.222 52.5737 155.18ZM86.7456 155.226C86.8574 155.189 86.9692 155.152 87.0815 155.115C86.9692 155.152 86.8574 155.189 86.7456 155.226ZM52.0415 154.925C52.1095 154.958 52.1781 154.99 52.2466 155.023C52.1781 154.99 52.1095 154.958 52.0415 154.925ZM87.8599 154.856C88.0221 154.801 88.184 154.744 88.3472 154.688C88.184 154.744 88.0221 154.801 87.8599 154.856ZM51.4644 154.635C51.5389 154.673 51.6138 154.711 51.689 154.749C51.6138 154.711 51.5389 154.673 51.4644 154.635ZM50.9126 154.344C50.9979 154.39 51.0833 154.436 51.1694 154.481C51.0833 154.436 50.9979 154.39 50.9126 154.344ZM88.9448 154.48C89.1509 154.408 89.3574 154.333 89.5649 154.258C89.3574 154.333 89.1509 154.408 88.9448 154.48ZM50.3589 154.038C50.4531 154.091 50.5477 154.145 50.6431 154.197C50.5477 154.145 50.4531 154.091 50.3589 154.038ZM90.1479 154.046C90.3437 153.974 90.5398 153.9 90.7368 153.825C90.5398 153.9 90.3437 153.974 90.1479 154.046ZM49.8735 153.758C49.9529 153.805 50.0326 153.851 50.1128 153.897C50.0326 153.851 49.9529 153.805 49.8735 153.758ZM91.2954 153.613C91.4434 153.556 91.5911 153.497 91.7397 153.439C91.5911 153.497 91.4434 153.556 91.2954 153.613ZM49.2896 153.406C49.398 153.473 49.5068 153.54 49.6167 153.606C49.5068 153.54 49.398 153.473 49.2896 153.406ZM48.8179 153.109C48.9284 153.18 49.0396 153.251 49.1519 153.321C49.0396 153.251 48.9284 153.18 48.8179 153.109ZM48.3882 152.828C48.4624 152.877 48.5369 152.927 48.6118 152.976C48.5369 152.927 48.4624 152.877 48.3882 152.828ZM93.7358 152.638C93.825 152.601 93.914 152.563 94.0034 152.525C93.914 152.563 93.825 152.601 93.7358 152.638ZM47.9448 152.529C47.9901 152.56 48.036 152.591 48.0815 152.622C48.036 152.591 47.9901 152.56 47.9448 152.529ZM47.4497 152.181C47.5033 152.219 47.5568 152.258 47.6108 152.296C47.5568 152.258 47.5033 152.219 47.4497 152.181ZM94.9419 152.129C95.0765 152.071 95.211 152.012 95.3462 151.953C95.211 152.012 95.0765 152.071 94.9419 152.129ZM46.936 151.805C47.0234 151.87 47.1112 151.935 47.1997 152C47.1112 151.935 47.0234 151.87 46.936 151.805ZM46.4722 151.451C46.5762 151.532 46.6809 151.612 46.7866 151.692C46.6809 151.612 46.5762 151.532 46.4722 151.451ZM46.0923 151.152C46.1645 151.21 46.237 151.268 46.3101 151.325C46.237 151.268 46.1645 151.21 46.0923 151.152ZM97.4351 151.021C97.5177 150.984 97.6003 150.945 97.6831 150.907C97.6003 150.945 97.5177 150.984 97.4351 151.021ZM45.6636 150.804C45.7361 150.864 45.8089 150.924 45.8823 150.983C45.8089 150.924 45.7361 150.864 45.6636 150.804ZM45.2554 150.46C45.3198 150.515 45.3845 150.57 45.4497 150.625C45.3845 150.57 45.3198 150.515 45.2554 150.46ZM44.8589 150.115C44.9119 150.162 44.9655 150.208 45.019 150.255C44.9655 150.208 44.9119 150.162 44.8589 150.115ZM44.3647 149.67C44.4526 149.751 44.541 149.832 44.6304 149.912C44.541 149.832 44.4526 149.751 44.3647 149.67ZM99.9683 149.823C100.144 149.738 100.319 149.65 100.496 149.563C100.319 149.65 100.144 149.738 99.9683 149.823ZM69.1997 149.086C68.8338 149.092 68.4675 149.095 68.1011 149.096C68.4675 149.095 68.8338 149.092 69.1997 149.086ZM66.561 149.08C67.0241 149.09 67.4871 149.095 67.9497 149.096C67.4871 149.095 67.0241 149.09 66.561 149.08ZM65.02 149.028C65.4854 149.05 65.951 149.065 66.4165 149.076C65.951 149.065 65.4854 149.05 65.02 149.028ZM74.0571 148.845C73.4724 148.892 72.8857 148.934 72.2974 148.969C72.8857 148.934 73.4724 148.892 74.0571 148.845ZM61.1909 148.73C61.8196 148.8 62.4497 148.858 63.0806 148.907C62.4497 148.858 61.8196 148.8 61.1909 148.73ZM43.2925 148.639C43.369 148.716 43.4461 148.792 43.5239 148.869C43.4461 148.792 43.369 148.716 43.2925 148.639ZM78.2017 148.404C76.8828 148.576 75.5479 148.723 74.2017 148.834C75.5479 148.723 76.8828 148.576 78.2017 148.404ZM42.7935 148.122C42.9249 148.26 43.0563 148.4 43.1919 148.537C43.0563 148.4 42.9249 148.26 42.7935 148.122ZM58.1479 148.308C58.2906 148.332 58.4338 148.353 58.5767 148.376C58.423 148.351 58.2691 148.328 58.1157 148.302L58.1479 148.308ZM42.0923 147.365C42.2155 147.502 42.3391 147.641 42.4663 147.778C42.3391 147.641 42.2155 147.502 42.0923 147.365ZM85.8892 147.087C86.7905 146.896 87.6773 146.697 88.5474 146.49C87.6773 146.697 86.7905 146.896 85.8892 147.087ZM52.1567 146.899C52.5948 147.034 53.0351 147.16 53.4771 147.281C53.0351 147.16 52.5948 147.034 52.1567 146.899ZM41.436 146.613C41.5671 146.768 41.6993 146.924 41.8354 147.079C41.6993 146.924 41.5671 146.768 41.436 146.613ZM109.444 144.741C108.083 145.535 106.746 146.289 105.432 147.004C106.746 146.289 108.083 145.535 109.444 144.741ZM49.7798 146.092C50.2458 146.266 50.7146 146.431 51.186 146.588C50.7146 146.431 50.2458 146.266 49.7798 146.092ZM40.9048 145.971C41.0089 146.1 41.1136 146.23 41.2212 146.359C41.1136 146.23 41.0089 146.1 40.9048 145.971ZM40.2212 145.097C40.3519 145.269 40.4846 145.444 40.6216 145.618C40.4846 145.444 40.3519 145.269 40.2212 145.097ZM94.6753 144.857C93.974 145.064 93.2547 145.269 92.519 145.472C93.2547 145.269 93.974 145.064 94.6753 144.857ZM39.6704 144.35C39.8129 144.549 39.9589 144.749 40.1099 144.951C39.9589 144.749 39.8129 144.549 39.6704 144.35ZM39.2769 143.787C39.3817 143.94 39.4873 144.094 39.5972 144.249C39.4873 144.094 39.3817 143.94 39.2769 143.787ZM98.8413 143.548C98.3201 143.722 97.7843 143.898 97.2339 144.073C97.7843 143.898 98.3201 143.722 98.8413 143.548ZM43.6646 143.19C43.9781 143.375 44.2942 143.554 44.6118 143.729C44.2942 143.554 43.9781 143.375 43.6646 143.19ZM38.939 143.287C38.9927 143.368 39.0459 143.45 39.1011 143.532C39.0459 143.45 38.9927 143.368 38.939 143.287ZM38.4116 142.469C38.4877 142.591 38.5646 142.714 38.644 142.838C38.5646 142.714 38.4877 142.591 38.4116 142.469ZM105.421 141.146C104.274 141.603 102.913 142.126 101.37 142.677C102.913 142.126 104.274 141.603 105.421 141.146ZM37.9839 141.767C38.0782 141.926 38.1745 142.088 38.2749 142.251C38.1745 142.088 38.0782 141.926 37.9839 141.767ZM41.1499 141.564C41.4519 141.778 41.7563 141.986 42.063 142.188C41.7563 141.986 41.4519 141.778 41.1499 141.564ZM37.2778 140.52C37.4576 140.853 37.6525 141.203 37.8638 141.564L37.5552 141.024C37.4589 140.853 37.3665 140.684 37.2778 140.52ZM38.2915 139.318C38.9809 139.919 39.6846 140.488 40.4038 141.024C39.6846 140.488 38.9809 139.919 38.2915 139.318ZM36.7808 139.56C36.9104 139.82 37.0505 140.094 37.2026 140.38C37.0505 140.094 36.9104 139.82 36.7808 139.56ZM108.907 139.681C108.535 139.847 107.999 140.083 107.315 140.372C107.999 140.083 108.535 139.847 108.907 139.681ZM35.7456 137.233C35.8624 137.535 36.0282 137.945 36.2505 138.44C36.0282 137.945 35.8624 137.535 35.7456 137.233ZM36.1089 137.254C36.5084 137.665 36.9147 138.063 37.3267 138.449C36.9147 138.063 36.5084 137.665 36.1089 137.254ZM43.6841 149.025C43.7661 149.105 43.8486 149.185 43.9321 149.265C43.8486 149.185 43.7661 149.105 43.6841 149.025ZM43.9966 149.326C44.107 149.431 44.2186 149.535 44.3315 149.64C44.2186 149.535 44.107 149.431 43.9966 149.326ZM53.6226 147.321C53.85 147.383 54.0778 147.442 54.3062 147.5C54.0778 147.442 53.85 147.383 53.6226 147.321ZM54.3589 147.514C54.5905 147.572 54.8227 147.628 55.0552 147.683C54.8227 147.628 54.5905 147.572 54.3589 147.514ZM84.4868 147.374C84.9101 147.29 85.3303 147.204 85.7476 147.116C85.3303 147.204 84.9101 147.29 84.4868 147.374ZM88.605 146.477C89.0108 146.38 89.4127 146.281 89.811 146.182C89.4127 146.281 89.0108 146.38 88.605 146.477ZM36.3081 138.566C36.3564 138.673 36.4063 138.783 36.4595 138.896C36.4063 138.783 36.3564 138.673 36.3081 138.566Z" fill="url(#paint4_linear_716_24)"/>
<path d="M26.1782 83.165C25.6564 99.8101 37.6953 112.73 50.3921 121.646C56.6927 126.07 63.0391 129.424 67.8169 131.673C70.2032 132.796 72.1928 133.641 73.5815 134.203C74.2755 134.484 74.8192 134.695 75.187 134.834C75.3709 134.904 75.5113 134.956 75.604 134.99C75.6502 135.007 75.6852 135.019 75.7075 135.027C75.7185 135.031 75.727 135.034 75.7319 135.036C75.7337 135.037 75.7349 135.038 75.7358 135.038L77.5942 135.699L73.7085 142.521L72.4878 142.21C37.7017 133.325 24.9637 118.663 21.2671 105.71C19.4377 99.2991 19.8812 93.4795 20.7729 89.2773C21.2193 87.1742 21.7797 85.4647 22.2329 84.2734C22.4596 83.6777 22.6606 83.2101 22.8071 82.8857C22.8804 82.7235 22.9408 82.5957 22.9839 82.5068C23.0052 82.4629 23.022 82.4276 23.0347 82.4023L23.0552 82.3623C23.0559 82.361 23.0578 82.3581 23.0581 82.3574C23.0652 82.3595 23.1594 82.4077 24.5269 83.1133L23.0581 82.3555L26.4067 75.8652L26.1782 83.165ZM64.2349 131.769C70.5921 134.956 75.1413 136.58 75.1821 136.595L72.896 140.609L75.1831 136.595C75.1831 136.595 74.7281 136.433 73.9048 136.11C73.3557 135.895 72.643 135.608 71.7915 135.251C69.6634 134.358 66.6705 133.022 63.2124 131.25L64.2349 131.769ZM63.8022 137.999C63.9494 138.046 64.0974 138.093 64.2456 138.14C64.0974 138.093 63.9494 138.046 63.8022 137.999ZM62.4087 137.543C62.6867 137.636 62.9669 137.726 63.2485 137.818C62.9669 137.726 62.6867 137.636 62.4087 137.543ZM58.4058 136.134C58.4904 136.165 58.5757 136.195 58.6606 136.227C58.5757 136.195 58.4904 136.165 58.4058 136.134ZM57.0513 135.621C57.3042 135.719 57.5595 135.814 57.8159 135.911C57.5595 135.814 57.3042 135.719 57.0513 135.621ZM54.6216 134.65C54.7634 134.709 54.9064 134.766 55.0493 134.824C54.9064 134.766 54.7634 134.709 54.6216 134.65ZM53.4458 134.156C53.5524 134.202 53.6598 134.247 53.7671 134.292C53.6598 134.247 53.5524 134.202 53.4458 134.156ZM52.2202 133.622C52.4116 133.707 52.6046 133.791 52.7983 133.875C52.6046 133.791 52.4116 133.707 52.2202 133.622ZM51.1079 133.121C51.3069 133.212 51.5079 133.302 51.7095 133.393C51.5079 133.302 51.3069 133.212 51.1079 133.121ZM49.9517 132.581C50.1676 132.684 50.3859 132.785 50.605 132.887C50.3859 132.785 50.1676 132.684 49.9517 132.581ZM48.9312 132.088C49.0918 132.167 49.2541 132.244 49.4165 132.322C49.2541 132.244 49.0918 132.167 48.9312 132.088ZM47.8638 131.555C47.9419 131.594 48.0206 131.633 48.0991 131.673C48.0206 131.633 47.9419 131.594 47.8638 131.555ZM46.8062 131.008C46.9526 131.085 47.1005 131.161 47.2485 131.237C47.1005 131.161 46.9526 131.085 46.8062 131.008ZM45.769 130.452C45.9559 130.554 46.1448 130.654 46.3345 130.756C46.1448 130.654 45.9559 130.554 45.769 130.452ZM54.2241 126.163C55.8028 127.149 57.3583 128.066 58.8647 128.914C58.1115 128.49 57.3463 128.048 56.5718 127.59C55.7972 127.131 55.0136 126.655 54.2241 126.162V126.163ZM44.853 129.944C44.9659 130.008 45.0799 130.07 45.1938 130.134C45.0799 130.07 44.9659 130.008 44.853 129.944ZM43.8989 129.397C43.976 129.442 44.0538 129.486 44.1313 129.531C44.0538 129.486 43.976 129.442 43.8989 129.397ZM42.9907 128.86C43.037 128.888 43.0839 128.915 43.1304 128.943C43.0839 128.915 43.037 128.888 42.9907 128.86ZM42.021 128.266C42.1286 128.333 42.2375 128.399 42.3462 128.466C42.2375 128.399 42.1286 128.333 42.021 128.266ZM41.1753 127.729C41.2699 127.79 41.3659 127.849 41.4614 127.91C41.3659 127.849 41.2699 127.79 41.1753 127.729ZM40.2593 127.125C40.3961 127.217 40.5346 127.307 40.6733 127.398C40.5346 127.307 40.3961 127.217 40.2593 127.125ZM39.4673 126.586C39.5878 126.669 39.7095 126.752 39.8315 126.835C39.7095 126.752 39.5878 126.669 39.4673 126.586ZM38.6489 126.01C38.7618 126.091 38.8764 126.17 38.9907 126.251C38.8764 126.17 38.7618 126.091 38.6489 126.01ZM37.8853 125.453C37.9763 125.521 38.0686 125.587 38.1606 125.654C38.0686 125.587 37.9763 125.521 37.8853 125.453ZM37.0962 124.857C37.2076 124.943 37.3202 125.028 37.4331 125.113C37.3202 125.028 37.2076 124.943 37.0962 124.857ZM44.6733 119.422H44.6743H44.6733ZM36.3599 124.281C36.4643 124.364 36.5704 124.446 36.6763 124.529C36.5704 124.446 36.4643 124.364 36.3599 124.281ZM35.6431 123.7C35.7437 123.783 35.8457 123.865 35.9478 123.948C35.8457 123.865 35.7437 123.783 35.6431 123.7ZM34.9204 123.094C35.0491 123.204 35.18 123.313 35.311 123.423C35.18 123.313 35.0491 123.204 34.9204 123.094ZM34.269 122.526C34.3854 122.629 34.5032 122.732 34.6216 122.835C34.5032 122.732 34.3854 122.629 34.269 122.526ZM33.6382 121.957C33.7267 122.038 33.816 122.119 33.9058 122.2C33.816 122.119 33.7267 122.038 33.6382 121.957ZM33.0063 121.367C33.0873 121.444 33.1694 121.521 33.2515 121.598C33.1694 121.521 33.0873 121.444 33.0063 121.367ZM32.3657 120.745C32.464 120.842 32.5636 120.939 32.6636 121.036C32.5636 120.939 32.464 120.842 32.3657 120.745ZM31.7905 120.166C31.8964 120.275 32.0039 120.383 32.1118 120.491C32.0039 120.383 31.8964 120.275 31.7905 120.166ZM31.2173 119.566C31.3085 119.664 31.4008 119.76 31.4937 119.857C31.4008 119.76 31.3085 119.664 31.2173 119.566ZM30.6938 118.999C30.7769 119.091 30.8614 119.182 30.9458 119.273C30.8614 119.182 30.7769 119.091 30.6938 118.999ZM30.1812 118.421C30.2351 118.483 30.2896 118.545 30.3442 118.606C30.2896 118.545 30.2351 118.483 30.1812 118.421ZM29.6665 117.819C29.7221 117.886 29.7791 117.951 29.8354 118.018C29.7791 117.951 29.7221 117.886 29.6665 117.819ZM29.1558 117.198C29.2261 117.286 29.298 117.372 29.3696 117.46C29.298 117.372 29.2261 117.286 29.1558 117.198ZM28.6812 116.596C28.7539 116.69 28.8277 116.784 28.9019 116.878C28.8277 116.784 28.7539 116.69 28.6812 116.596ZM28.2476 116.023C28.3048 116.1 28.3633 116.177 28.4214 116.254C28.3633 116.177 28.3048 116.1 28.2476 116.023ZM27.8052 115.415C27.856 115.486 27.9078 115.557 27.9595 115.629C27.9078 115.557 27.856 115.486 27.8052 115.415ZM27.3774 114.802C27.4418 114.896 27.507 114.991 27.5728 115.085C27.507 114.991 27.4418 114.896 27.3774 114.802ZM26.9604 114.176C27.036 114.292 27.1125 114.408 27.1899 114.523C27.1125 114.408 27.036 114.292 26.9604 114.176ZM26.5786 113.577C26.6541 113.698 26.7305 113.819 26.8081 113.94C26.7305 113.819 26.6541 113.698 26.5786 113.577ZM26.2241 112.996C26.2947 113.114 26.3664 113.232 26.439 113.351C26.3664 113.232 26.2947 113.114 26.2241 112.996ZM25.9058 112.451C25.9443 112.518 25.9828 112.586 26.022 112.653C25.9828 112.586 25.9443 112.518 25.9058 112.451ZM25.5444 111.805C25.5967 111.901 25.6501 111.997 25.7036 112.093C25.6501 111.997 25.5967 111.901 25.5444 111.805ZM25.2495 111.251C25.3017 111.351 25.3552 111.451 25.4087 111.552C25.3552 111.451 25.3017 111.351 25.2495 111.251ZM24.937 110.633C24.9807 110.721 25.0242 110.81 25.0688 110.898C25.0242 110.81 24.9807 110.721 24.937 110.633ZM24.6382 110.012C24.6886 110.119 24.7396 110.227 24.7915 110.335C24.7396 110.227 24.6886 110.119 24.6382 110.012ZM24.3882 109.465C24.4323 109.564 24.4776 109.663 24.5229 109.762C24.4776 109.663 24.4323 109.564 24.3882 109.465ZM24.1245 108.856C24.1689 108.962 24.2144 109.067 24.2603 109.173C24.2144 109.067 24.1689 108.962 24.1245 108.856ZM23.8745 108.244C23.9239 108.369 23.9735 108.493 24.0249 108.618C23.9735 108.493 23.9239 108.369 23.8745 108.244ZM23.6519 107.668C23.6943 107.781 23.7377 107.894 23.7817 108.008C23.7377 107.894 23.6943 107.781 23.6519 107.668ZM23.4399 107.085C23.4837 107.209 23.5281 107.334 23.5737 107.458C23.5281 107.334 23.4837 107.209 23.4399 107.085ZM30.7017 104.356C31.1113 104.999 31.5377 105.632 31.978 106.256C31.6844 105.84 31.3969 105.42 31.1167 104.995C30.9767 104.783 30.8391 104.57 30.7026 104.355L30.7017 104.356ZM23.2622 106.567C23.2932 106.66 23.3249 106.753 23.3569 106.847C23.3249 106.753 23.2932 106.66 23.2622 106.567ZM23.0835 106.015C23.1086 106.095 23.1347 106.175 23.1606 106.256C23.1347 106.175 23.1086 106.095 23.0835 106.015ZM22.9048 105.425C22.9246 105.493 22.945 105.561 22.9653 105.629C22.945 105.561 22.9246 105.493 22.9048 105.425ZM22.7544 104.892C22.7738 104.963 22.794 105.034 22.814 105.105C22.794 105.034 22.7738 104.963 22.7544 104.892ZM22.5845 104.24C22.6073 104.332 22.631 104.424 22.6548 104.516C22.631 104.424 22.6073 104.332 22.5845 104.24ZM22.4575 103.71C22.4823 103.817 22.5076 103.925 22.5337 104.033C22.5076 103.925 22.4823 103.817 22.4575 103.71ZM22.3364 103.165C22.3541 103.248 22.3727 103.332 22.3911 103.415C22.3727 103.332 22.3541 103.248 22.3364 103.165ZM22.2222 102.599C22.2423 102.703 22.2624 102.807 22.2837 102.912C22.2624 102.807 22.2423 102.703 22.2222 102.599ZM22.1353 102.127C22.1464 102.19 22.1569 102.253 22.1685 102.316C22.1569 102.253 22.1464 102.19 22.1353 102.127ZM21.9585 101.01C21.969 101.085 21.9796 101.161 21.9907 101.236C21.9796 101.161 21.969 101.085 21.9585 101.01ZM21.8237 99.9043C21.8324 99.9877 21.8407 100.071 21.8501 100.155C21.8407 100.071 21.8324 99.9877 21.8237 99.9043ZM21.771 99.3506C21.7788 99.4411 21.7858 99.532 21.7944 99.623C21.7858 99.532 21.7788 99.4411 21.771 99.3506ZM21.7368 98.9219C21.7407 98.9755 21.7443 99.0292 21.7485 99.083C21.7443 99.0292 21.7407 98.9755 21.7368 98.9219ZM21.6997 98.3369C21.704 98.4168 21.7084 98.4969 21.7134 98.5771C21.7084 98.4969 21.704 98.4168 21.6997 98.3369ZM21.6587 97.2627C21.6609 97.3668 21.6633 97.4713 21.6665 97.5762C21.6633 97.4713 21.6609 97.3668 21.6587 97.2627ZM21.6577 96.1475C21.6558 96.287 21.6519 96.4273 21.6519 96.5684C21.6519 96.4273 21.6558 96.287 21.6577 96.1475ZM21.6851 95.1523C21.6784 95.3057 21.6701 95.4599 21.6655 95.6152C21.6701 95.4599 21.6783 95.3057 21.6851 95.1523ZM21.7388 94.2295C21.7292 94.3631 21.7185 94.4975 21.7104 94.6328C21.7185 94.4975 21.7292 94.3631 21.7388 94.2295ZM21.8179 93.3096C21.8036 93.4531 21.7875 93.5974 21.7749 93.7432C21.7875 93.5974 21.8036 93.4531 21.8179 93.3096ZM21.9136 92.4482C21.8973 92.5778 21.8797 92.7082 21.8647 92.8398C21.8797 92.7082 21.8973 92.5778 21.9136 92.4482ZM22.0815 91.2656C22.0435 91.5016 22.0072 91.7415 21.9731 91.9854C22.0072 91.7415 22.0434 91.5016 22.0815 91.2656ZM22.6938 88.3125C22.9734 87.2116 23.2754 86.2589 23.5513 85.4805C23.2754 86.2589 22.9734 87.2116 22.6938 88.3125ZM55.8677 135.156C56.2289 135.3 56.5938 135.443 56.9624 135.586C56.5938 135.443 56.2289 135.3 55.8677 135.156ZM21.6528 96.8623C21.6535 96.9454 21.6544 97.0287 21.6558 97.1123C21.6544 97.0287 21.6535 96.9454 21.6528 96.8623ZM22.1812 90.6934C22.1526 90.8526 22.123 91.0135 22.0962 91.1768C22.123 91.0135 22.1526 90.8526 22.1812 90.6934ZM22.6938 88.3125C22.6475 88.495 22.6011 88.6815 22.5562 88.8721C22.6011 88.6815 22.6475 88.495 22.6938 88.3125Z" fill="url(#paint5_linear_716_24)"/>
<path d="M56.4623 38.7393C43.9653 50.0177 43.177 67.2728 45.7601 82.1729C47.043 89.5726 49.1375 96.258 50.9154 101.099C51.8034 103.516 52.6099 105.468 53.1927 106.811C53.484 107.482 53.719 108.001 53.8802 108.35C53.9609 108.524 54.0235 108.656 54.0648 108.743C54.0854 108.786 54.1007 108.819 54.1107 108.84C54.1156 108.85 54.1192 108.858 54.1215 108.862C54.1225 108.865 54.124 108.866 54.1244 108.867L54.9916 110.646L47.3441 112.8L46.6908 111.733C28.2398 81.6263 29.7916 62.6019 36.597 50.9941C39.9587 45.2606 44.5141 41.5062 48.2045 39.1904C50.0522 38.0309 51.6947 37.225 52.8832 36.7061C53.4779 36.4464 53.9607 36.2571 54.3002 36.1318C54.4696 36.0693 54.604 36.0224 54.6986 35.9902C54.7457 35.9742 54.7838 35.962 54.8109 35.9531C54.8242 35.9488 54.8349 35.9441 54.8431 35.9414C54.8472 35.9401 54.8511 35.9394 54.8539 35.9385C54.8552 35.9381 54.857 35.9377 54.8578 35.9375C54.8593 35.937 54.8608 35.9371 55.3549 37.5137L54.8607 35.9365L62.0707 33.6777L56.4623 38.7393ZM48.3246 98.7197C50.5602 105.332 52.639 109.592 52.639 109.592L48.099 110.87L52.64 109.592C52.6252 109.561 50.7548 105.722 48.6586 99.6924L48.3246 98.7197ZM42.8041 101.495C44.0048 103.83 45.3422 106.245 46.8207 108.743C45.3422 106.245 44.0048 103.83 42.8041 101.495ZM44.7972 85.9053C45.7085 90.2269 46.8451 94.2241 47.9701 97.6562L48.307 98.667C47.0753 95.0187 45.7995 90.6584 44.7972 85.9053ZM39.847 95.3066C39.9235 95.4802 40.0024 95.6535 40.0804 95.8281C40.0024 95.6535 39.9235 95.4802 39.847 95.3066ZM38.3783 91.7881C38.4512 91.973 38.5272 92.1577 38.6019 92.3438C38.5272 92.1577 38.4512 91.973 38.3783 91.7881ZM37.9447 90.667C38.0087 90.8357 38.0755 91.0041 38.141 91.1738C38.0755 91.0041 38.0087 90.8357 37.9447 90.667ZM37.1176 88.3896C37.1726 88.5482 37.2301 88.7067 37.2865 88.8662C37.2301 88.7067 37.1726 88.5482 37.1176 88.3896ZM36.7543 87.3184C36.8231 87.5261 36.8949 87.734 36.9662 87.9434C36.8949 87.734 36.8231 87.5261 36.7543 87.3184ZM36.4105 86.2529C36.4418 86.3521 36.4744 86.4512 36.5062 86.5508C36.4744 86.4512 36.4418 86.3521 36.4105 86.2529ZM36.0746 85.1621C36.1282 85.3416 36.1841 85.5214 36.2396 85.7021C36.1841 85.5214 36.1282 85.3416 36.0746 85.1621ZM35.7699 84.1133C35.8198 84.2898 35.8715 84.4667 35.9232 84.6445C35.8715 84.4667 35.8198 84.2898 35.7699 84.1133ZM35.4779 83.0479C35.5224 83.2154 35.5695 83.383 35.6156 83.5518C35.5695 83.383 35.5224 83.2154 35.4779 83.0479ZM35.223 82.0566C35.2561 82.1895 35.2914 82.3224 35.3256 82.4561C35.2914 82.3224 35.2561 82.1895 35.223 82.0566ZM43.1957 63.251C42.5662 69.6131 43.0545 76.0919 44.0746 82.1104C43.0545 76.0919 42.5662 69.6131 43.1957 63.251ZM34.9662 80.9863C35.0078 81.1664 35.0515 81.3469 35.0951 81.5283C35.0515 81.3469 35.0078 81.1664 34.9662 80.9863ZM34.7582 80.0547C34.7906 80.2053 34.8249 80.3562 34.8588 80.5078C34.8249 80.3562 34.7906 80.2053 34.7582 80.0547ZM34.5472 79.0342C34.5812 79.2065 34.6178 79.3791 34.6537 79.5527C34.6178 79.3791 34.5812 79.2065 34.5472 79.0342ZM34.3627 78.0537C34.4011 78.2675 34.4415 78.4823 34.4828 78.6982C34.4415 78.4823 34.4011 78.2675 34.3627 78.0537ZM34.1996 77.0977C34.2354 77.3188 34.2729 77.5412 34.3119 77.7646C34.2729 77.5412 34.2354 77.3188 34.1996 77.0977ZM34.0658 76.2285C34.0785 76.316 34.0926 76.4034 34.1058 76.4912C34.0926 76.4034 34.0785 76.316 34.0658 76.2285ZM33.9349 75.2686C33.9529 75.4103 33.9723 75.5525 33.9916 75.6953C33.9723 75.5525 33.9529 75.4103 33.9349 75.2686ZM33.8304 74.3857C33.845 74.5188 33.8606 74.6522 33.8763 74.7861C33.8606 74.6522 33.845 74.5188 33.8304 74.3857ZM33.7396 73.4834C33.7509 73.6071 33.7635 73.731 33.7758 73.8555C33.7635 73.731 33.7509 73.6071 33.7396 73.4834ZM33.6674 72.584C33.676 72.7028 33.6852 72.8219 33.6947 72.9414C33.6852 72.8219 33.676 72.7028 33.6674 72.584ZM33.6097 71.6836C33.6178 71.8357 33.6274 71.9883 33.6371 72.1416C33.6274 71.9883 33.6178 71.8357 33.6097 71.6836ZM33.5717 70.7949C33.5769 70.9512 33.5833 71.108 33.5902 71.2656C33.5833 71.108 33.5769 70.9512 33.5717 70.7949ZM33.5521 70.0039C33.5545 70.153 33.558 70.3027 33.5619 70.4531C33.558 70.3027 33.5545 70.153 33.5521 70.0039ZM33.5472 69.2158C33.547 69.3015 33.5469 69.3875 33.5472 69.4736C33.5469 69.3875 33.547 69.3015 33.5472 69.2158ZM33.556 68.3955C33.554 68.487 33.5535 68.5789 33.5521 68.6709C33.5535 68.5789 33.554 68.487 33.556 68.3955ZM33.5844 67.5342C33.5786 67.6677 33.5741 67.8019 33.5697 67.9365C33.5741 67.8019 33.5786 67.6677 33.5844 67.5342ZM33.6263 66.7412C33.6165 66.8973 33.608 67.0542 33.6 67.2119C33.608 67.0542 33.6165 66.8973 33.6263 66.7412ZM33.681 65.9785C33.6719 66.0891 33.6648 66.2002 33.6566 66.3115C33.6648 66.2002 33.6719 66.0891 33.681 65.9785ZM33.7504 65.2334C33.7413 65.3223 33.7335 65.4115 33.725 65.501C33.7335 65.4115 33.7413 65.3223 33.7504 65.2334ZM33.8324 64.499C33.8203 64.5983 33.8096 64.6979 33.7982 64.7979C33.8096 64.6979 33.8203 64.5983 33.8324 64.499ZM33.934 63.7314C33.9189 63.8365 33.9052 63.942 33.891 64.0479C33.9052 63.942 33.9189 63.8365 33.934 63.7314ZM34.0502 62.9746C34.0275 63.1122 34.007 63.2507 33.9857 63.3896C34.007 63.2507 34.0275 63.1122 34.0502 62.9746ZM34.1771 62.252C34.1505 62.395 34.126 62.539 34.101 62.6836C34.126 62.539 34.1505 62.395 34.1771 62.252ZM51.8529 41.1562C46.6318 47.4294 44.1138 54.9296 43.2621 62.6299C44.1138 54.9297 46.6319 47.4294 51.8529 41.1562ZM34.3051 61.5977C34.2802 61.7184 34.2575 61.84 34.2338 61.9619C34.2575 61.84 34.2802 61.7184 34.3051 61.5977ZM34.4535 60.916C34.4332 61.0052 34.4136 61.0948 34.3939 61.1846C34.4136 61.0948 34.4332 61.0052 34.4535 60.916ZM34.6205 60.2158C34.5948 60.3185 34.5701 60.4218 34.5453 60.5254C34.5701 60.4218 34.5948 60.3185 34.6205 60.2158ZM34.7845 59.5859C34.7644 59.6606 34.7447 59.7355 34.725 59.8105C34.7447 59.7355 34.7644 59.6606 34.7845 59.5859ZM34.9818 58.8857C34.9525 58.9853 34.9234 59.0852 34.8949 59.1855C34.9234 59.0852 34.9525 58.9853 34.9818 58.8857ZM35.1771 58.2451C35.1389 58.3658 35.1019 58.4874 35.0648 58.6094C35.1019 58.4874 35.1389 58.3658 35.1771 58.2451ZM35.3705 57.6553C35.3443 57.7328 35.3181 57.8106 35.2924 57.8887C35.3181 57.8106 35.3443 57.7328 35.3705 57.6553ZM35.6078 56.9775C35.5697 57.0825 35.5317 57.1879 35.4945 57.2939C35.5317 57.1879 35.5697 57.0825 35.6078 56.9775ZM35.8207 56.4082C35.7833 56.5054 35.746 56.603 35.7094 56.7012C35.746 56.603 35.7833 56.5054 35.8207 56.4082ZM36.0521 55.8232C36.0186 55.9056 35.9855 55.9883 35.9525 56.0713C35.9855 55.9883 36.0186 55.9056 36.0521 55.8232ZM36.2933 55.2471C36.2587 55.3274 36.2249 55.4083 36.1908 55.4893C36.2249 55.4083 36.2587 55.3274 36.2933 55.2471ZM36.5453 54.6787C36.514 54.7474 36.4834 54.8165 36.4525 54.8857C36.4834 54.8165 36.514 54.7474 36.5453 54.6787ZM36.8109 54.1104C36.7753 54.1846 36.7396 54.2591 36.7045 54.334C36.7396 54.2591 36.7753 54.1846 36.8109 54.1104ZM37.0853 53.5527C37.0456 53.6315 37.0064 53.7106 36.9672 53.79C37.0064 53.7106 37.0456 53.6315 37.0853 53.5527ZM37.3607 53.0186C37.3189 53.0977 37.277 53.177 37.2357 53.2568C37.277 53.177 37.3189 53.0977 37.3607 53.0186ZM37.6449 52.4932C37.6114 52.5537 37.5785 52.6148 37.5453 52.6758C37.5785 52.6148 37.6114 52.5537 37.6449 52.4932ZM37.931 51.9873C37.8998 52.0414 37.8693 52.096 37.8383 52.1504C37.8693 52.096 37.8998 52.0414 37.931 51.9873ZM38.2181 51.501C38.1894 51.5487 38.1608 51.5965 38.1322 51.6445C38.1608 51.5965 38.1894 51.5487 38.2181 51.501ZM38.5316 50.9941C38.4958 51.051 38.4597 51.1078 38.4242 51.165C38.4597 51.1078 38.4958 51.051 38.5316 50.9941ZM38.8734 50.4629C38.8262 50.5346 38.7786 50.6063 38.7318 50.6787C38.7786 50.6063 38.8262 50.5346 38.8734 50.4629ZM39.1644 50.0273C39.1226 50.0886 39.081 50.1501 39.0394 50.2119C39.081 50.1501 39.1226 50.0886 39.1644 50.0273ZM39.472 49.5859C39.4385 49.6333 39.4049 49.6808 39.3715 49.7285C39.4049 49.6808 39.4385 49.6333 39.472 49.5859ZM39.8158 49.1104C39.7777 49.162 39.7394 49.2136 39.7015 49.2656C39.7394 49.2136 39.7777 49.162 39.8158 49.1104ZM40.1488 48.666C40.1058 48.7222 40.0636 48.7792 40.0209 48.8359C40.0636 48.7792 40.1058 48.7222 40.1488 48.666ZM40.5219 48.1885C40.4711 48.2524 40.42 48.3163 40.3695 48.3809C40.42 48.3163 40.4711 48.2524 40.5219 48.1885ZM41.1791 47.3877C41.1246 47.4518 41.0702 47.5162 41.016 47.5811C41.0702 47.5162 41.1246 47.4518 41.1791 47.3877ZM41.5004 47.0156C41.4629 47.0584 41.4255 47.1014 41.3881 47.1445C41.4255 47.1014 41.4629 47.0584 41.5004 47.0156ZM41.8588 46.6143C41.8219 46.655 41.7843 46.6953 41.7474 46.7363C41.7843 46.6953 41.8219 46.655 41.8588 46.6143ZM42.2572 46.1826C42.1968 46.2469 42.1357 46.3109 42.0756 46.376C42.1357 46.3109 42.1968 46.2469 42.2572 46.1826ZM42.5609 45.8623C42.5177 45.9071 42.4742 45.9518 42.431 45.9971C42.4742 45.9518 42.5177 45.9071 42.5609 45.8623ZM43.3275 45.0938C43.2635 45.1559 43.1991 45.2182 43.1351 45.2812C43.1991 45.2182 43.2635 45.1559 43.3275 45.0938ZM43.8539 44.5967C43.7225 44.7188 43.5895 44.8409 43.4584 44.9668C43.5895 44.8409 43.7225 44.7188 43.8539 44.5967ZM44.5297 43.9863C44.425 44.0785 44.3189 44.1702 44.2142 44.2646C44.3189 44.1702 44.425 44.0785 44.5297 43.9863ZM45.1722 43.4336C45.1029 43.4917 45.0317 43.5483 44.9623 43.6074C45.0317 43.5483 45.1029 43.4917 45.1722 43.4336ZM45.9642 42.7891C45.8671 42.8657 45.7687 42.9419 45.6713 43.0205C45.7687 42.9419 45.8671 42.8657 45.9642 42.7891ZM46.7054 42.2207C46.5939 42.304 46.4807 42.3868 46.3685 42.4727C46.4807 42.3868 46.5939 42.304 46.7054 42.2207ZM47.3304 41.7637C47.2505 41.8207 47.1696 41.8772 47.0892 41.9355C47.1696 41.8772 47.2505 41.8207 47.3304 41.7637ZM47.9545 41.3281C47.9022 41.3638 47.8488 41.3984 47.7963 41.4346C47.8488 41.3984 47.9022 41.3638 47.9545 41.3281ZM54.7269 38.0938C53.856 38.9178 53.0444 39.7713 52.2855 40.6484C53.0444 39.7713 53.8561 38.9178 54.7269 38.0938ZM49.4496 40.3643C49.3446 40.4284 49.2377 40.492 49.1312 40.5586C49.2377 40.492 49.3446 40.4284 49.4496 40.3643ZM50.0814 39.9863C49.979 40.046 49.875 40.1058 49.7709 40.168C49.8751 40.1058 49.979 40.046 50.0814 39.9863ZM50.6869 39.6416C50.5969 39.6917 50.5051 39.7409 50.4135 39.793C50.5051 39.7409 50.5969 39.6917 50.6869 39.6416ZM52.4418 38.7275C52.3364 38.7785 52.2282 38.8302 52.1185 38.8848C52.2282 38.8302 52.3364 38.7785 52.4418 38.7275ZM52.7787 38.5674C52.7337 38.5885 52.6879 38.609 52.642 38.6309C52.6879 38.609 52.7337 38.5885 52.7787 38.5674ZM53.9261 38.0586C53.8057 38.1091 53.6775 38.1606 53.5443 38.2188C53.6775 38.1606 53.8057 38.1091 53.9261 38.0586ZM42.1918 100.287C42.2356 100.375 42.2804 100.462 42.3246 100.55C42.2804 100.462 42.2356 100.375 42.1918 100.287ZM44.6498 85.2061C44.6416 85.1658 44.6345 85.1253 44.6263 85.085C44.6345 85.1253 44.6416 85.1658 44.6498 85.2061ZM38.8519 92.9648C38.9768 93.2694 39.1049 93.5751 39.2347 93.8828C39.1049 93.5751 38.9768 93.2694 38.8519 92.9648ZM39.3256 94.0986C39.4567 94.4073 39.5907 94.7174 39.7269 95.0293C39.5907 94.7174 39.4567 94.4073 39.3256 94.0986Z" fill="url(#paint6_linear_716_24)"/>
<path d="M87.5319 21.2686C94.1422 19.4384 100.142 19.8811 104.475 20.7734C106.644 21.2201 108.406 21.7819 109.634 22.2354C110.248 22.462 110.73 22.6622 111.064 22.8086C111.231 22.8818 111.362 22.9424 111.454 22.9854C111.499 23.0065 111.534 23.0236 111.56 23.0361C111.573 23.0424 111.584 23.0478 111.592 23.0518L111.606 23.0586C111.606 23.0627 111.572 23.133 110.869 24.5371L111.609 23.0596L118.371 26.4463L110.813 26.1885C93.577 25.6001 80.1954 37.6677 70.9703 50.3682C66.3888 56.6757 62.9124 63.0329 60.5807 67.8193C59.4162 70.2098 58.5404 72.2033 57.9567 73.5947C57.6649 74.2902 57.4461 74.8356 57.3014 75.2041C57.2291 75.3882 57.1756 75.5292 57.1403 75.6221C57.1227 75.6682 57.1086 75.7023 57.1002 75.7246C57.0961 75.7356 57.0933 75.744 57.0914 75.749C57.0905 75.7515 57.0898 75.7539 57.0895 75.7549L56.4459 77.501L49.4528 73.9316L49.7926 72.6436C59.005 37.7246 74.1758 24.9664 87.5319 21.2686ZM55.0651 61.1201C54.2497 63.4006 53.4632 65.8075 52.7096 68.3477C52.5589 68.8556 52.4104 69.3691 52.2623 69.8877V69.8887C53.1508 66.7761 54.0866 63.8568 55.0651 61.1201ZM58.2819 68.7969C58.3512 68.6489 58.4257 68.5006 58.4977 68.3486C58.4257 68.5006 58.3512 68.6489 58.2819 68.7969ZM62.2584 61.0225C61.8565 61.7461 61.4724 62.4545 61.1061 63.1445C61.4724 62.4545 61.8565 61.7461 62.2584 61.0225ZM65.6246 55.3311C65.767 55.1049 65.9129 54.8796 66.0582 54.6523C65.9129 54.8796 65.767 55.1049 65.6246 55.3311ZM67.9576 51.7754C68.0038 51.7079 68.0519 51.6417 68.0983 51.5742C68.0519 51.6417 68.0038 51.7079 67.9576 51.7754ZM61.944 45.7832V45.7842V45.7832ZM75.3746 42.2568C75.4465 42.1765 75.5201 42.0977 75.5924 42.0176C75.5201 42.0977 75.4465 42.1765 75.3746 42.2568ZM68.9869 35.5801C68.1796 36.524 67.3794 37.5285 66.5865 38.5957C67.3794 37.5285 68.1796 36.524 68.9869 35.5801ZM78.8551 38.6191C78.721 38.7501 78.5877 38.8818 78.4547 39.0137C78.5877 38.8818 78.721 38.7501 78.8551 38.6191ZM80.3483 37.2041C80.2495 37.2948 80.1515 37.3862 80.0533 37.4775C80.1515 37.3862 80.2495 37.2948 80.3483 37.2041ZM84.4401 33.7529C84.4528 33.7431 84.4664 33.7344 84.4791 33.7246C84.4664 33.7344 84.4528 33.7431 84.4401 33.7529ZM73.8893 30.6094C73.6834 30.7886 73.4777 30.9713 73.2721 31.1572C73.0663 31.3434 72.8603 31.5326 72.6549 31.7256C72.0386 32.3044 71.4248 32.9147 70.8131 33.5566L71.4254 32.9258C72.4477 31.8915 73.4765 30.9453 74.5084 30.0811L73.8893 30.6094ZM90.9449 29.4795C90.8894 29.51 90.8344 29.5415 90.7789 29.5723C90.8421 29.5372 90.905 29.5015 90.9684 29.4668L90.9449 29.4795ZM75.7477 29.083C76.1613 28.7629 76.5751 28.4553 76.9889 28.1602C76.5751 28.4553 76.1613 28.7629 75.7477 29.083ZM93.025 28.4072C92.694 28.5669 92.3655 28.7316 92.0387 28.8994C92.3655 28.7316 92.694 28.5669 93.025 28.4072ZM93.9664 27.9678C93.7546 28.0636 93.5437 28.1615 93.3336 28.2607C93.5437 28.1615 93.7546 28.0637 93.9664 27.9678ZM96.8307 26.7988C96.6563 26.8624 96.4825 26.9272 96.3092 26.9932C96.4825 26.9272 96.6563 26.8624 96.8307 26.7988ZM79.4684 26.5342V26.5332V26.5342ZM98.1598 26.3398C98.0939 26.3612 98.0283 26.3835 97.9625 26.4053C98.0283 26.3835 98.0939 26.3612 98.1598 26.3398ZM100.745 25.6016C100.459 25.6724 100.175 25.7469 99.8922 25.8242C100.175 25.7469 100.459 25.6724 100.745 25.6016ZM102.71 25.168C102.775 25.1554 102.841 25.145 102.907 25.1328C102.841 25.145 102.775 25.1554 102.71 25.168ZM104.567 24.8633C104.341 24.8947 104.115 24.9284 103.89 24.9639C104.115 24.9284 104.341 24.8947 104.567 24.8633ZM106.967 24.6113C106.745 24.6273 106.524 24.6451 106.303 24.665C106.524 24.6451 106.745 24.6273 106.967 24.6113ZM109.185 24.5176C108.867 24.5211 108.551 24.5294 108.236 24.541C108.552 24.5293 108.869 24.5211 109.187 24.5176H109.185ZM108.601 23.6191H108.602H108.601ZM90.3053 22.3047V22.3057V22.3047ZM91.4469 22.0977V22.0967V22.0977ZM99.8209 21.7715V21.7705V21.7715ZM94.7604 21.7207V21.7217V21.7207ZM56.0485 73.8857C56.1587 73.6142 56.2875 73.3035 56.4332 72.9561C56.2875 73.3035 56.1587 73.6142 56.0485 73.8857ZM56.0485 73.8857C55.9798 74.0549 55.9187 74.2089 55.8639 74.3467C55.9187 74.2089 55.9798 74.0549 56.0485 73.8857ZM62.2584 61.0225C62.3051 60.9384 62.3538 60.855 62.401 60.7705C62.3538 60.855 62.3051 60.9384 62.2584 61.0225ZM70.5446 48.1631C70.7634 47.8714 70.986 47.581 71.2096 47.29C70.986 47.581 70.7634 47.8714 70.5446 48.1631ZM79.1237 38.3574C79.0337 38.4443 78.9445 38.5318 78.8551 38.6191C78.9445 38.5318 79.0337 38.4443 79.1237 38.3574ZM80.8346 36.7607C80.6716 36.9076 80.5098 37.0557 80.3483 37.2041C80.5098 37.0557 80.6716 36.9076 80.8346 36.7607ZM85.692 32.8184C85.7706 32.7614 85.8495 32.705 85.9283 32.6484C85.8495 32.705 85.7706 32.7614 85.692 32.8184ZM94.442 27.7549C94.2829 27.8246 94.1246 27.8962 93.9664 27.9678C94.1246 27.8962 94.2829 27.8246 94.442 27.7549ZM101.152 25.501C101.163 25.4984 101.174 25.4967 101.185 25.4941C101.174 25.4967 101.163 25.4984 101.152 25.501ZM101.152 25.501C101.016 25.5332 100.88 25.5679 100.745 25.6016C100.88 25.5679 101.016 25.5332 101.152 25.501ZM105.083 24.7939C104.91 24.8154 104.739 24.8395 104.567 24.8633C104.739 24.8395 104.91 24.8154 105.083 24.7939Z" fill="url(#paint7_linear_716_24)"/>
</g>
<defs>
<linearGradient id="paint0_linear_716_24" x1="160.434" y1="62.1312" x2="79.4782" y2="62.1312" gradientUnits="userSpaceOnUse">
<stop stop-color="#0300C8"/>
<stop offset="0.25" stop-color="#6867DA"/>
<stop offset="0.467217" stop-color="#CFCEFF"/>
<stop offset="0.75" stop-color="#6867DA"/>
<stop offset="1" stop-color="#0300C8"/>
</linearGradient>
<linearGradient id="paint1_linear_716_24" x1="172" y1="118.402" x2="116.799" y2="52.4016" gradientUnits="userSpaceOnUse">
<stop stop-color="#0300C8"/>
<stop offset="0.25" stop-color="#6867DA"/>
<stop offset="0.467217" stop-color="#CFCEFF"/>
<stop offset="0.75" stop-color="#6867DA"/>
<stop offset="1" stop-color="#0300C8"/>
</linearGradient>
<linearGradient id="paint2_linear_716_24" x1="130.401" y1="160.001" x2="142.401" y2="79.2005" gradientUnits="userSpaceOnUse">
<stop stop-color="#0300C8"/>
<stop offset="0.25" stop-color="#6867DA"/>
<stop offset="0.467217" stop-color="#CFCEFF"/>
<stop offset="0.75" stop-color="#6867DA"/>
<stop offset="1" stop-color="#0300C8"/>
</linearGradient>
<linearGradient id="paint3_linear_716_24" x1="140.8" y1="115.6" x2="75.9992" y2="172" gradientUnits="userSpaceOnUse">
<stop stop-color="#0300C8"/>
<stop offset="0.25" stop-color="#6867DA"/>
<stop offset="0.467217" stop-color="#CFCEFF"/>
<stop offset="0.75" stop-color="#6867DA"/>
<stop offset="1" stop-color="#0300C8"/>
</linearGradient>
<linearGradient id="paint4_linear_716_24" x1="112.8" y1="141.999" x2="31.9997" y2="131.599" gradientUnits="userSpaceOnUse">
<stop stop-color="#0300C8"/>
<stop offset="0.25" stop-color="#6867DA"/>
<stop offset="0.467217" stop-color="#CFCEFF"/>
<stop offset="0.75" stop-color="#6867DA"/>
<stop offset="1" stop-color="#0300C8"/>
</linearGradient>
<linearGradient id="paint5_linear_716_24" x1="77.5997" y1="141.199" x2="19.9996" y2="75.9992" gradientUnits="userSpaceOnUse">
<stop stop-color="#0300C8"/>
<stop offset="0.25" stop-color="#6867DA"/>
<stop offset="0.467217" stop-color="#CFCEFF"/>
<stop offset="0.75" stop-color="#6867DA"/>
<stop offset="1" stop-color="#0300C8"/>
</linearGradient>
<linearGradient id="paint6_linear_716_24" x1="50.8005" y1="112.8" x2="62.4002" y2="33.6003" gradientUnits="userSpaceOnUse">
<stop stop-color="#0300C8"/>
<stop offset="0.25" stop-color="#6867DA"/>
<stop offset="0.467217" stop-color="#CFCEFF"/>
<stop offset="0.75" stop-color="#6867DA"/>
<stop offset="1" stop-color="#0300C8"/>
</linearGradient>
<linearGradient id="paint7_linear_716_24" x1="118.384" y1="77.7351" x2="49.6971" y2="77.7351" gradientUnits="userSpaceOnUse">
<stop stop-color="#0300C8"/>
<stop offset="0.25" stop-color="#6867DA"/>
<stop offset="0.467217" stop-color="#CFCEFF"/>
<stop offset="0.75" stop-color="#6867DA"/>
<stop offset="1" stop-color="#0300C8"/>
</linearGradient>
<clipPath id="clip0_716_24">
<rect width="192" height="192" fill="white"/>
</clipPath>
</defs>
</svg>
